<svg xmlns="http://www.w3.org/2000/svg" viewBox="0 0 116.8 116.8"><def><style>.aouter{fill:#9cd9d9}.binner{fill:#1ab8a1}.ceyes{fill:#b0caff;opacity:.2}.dmouth{fill:#fff;opacity:.9}.svg{align-self:center;justify-self:center}</style></def><circle cx="58.4" cy="58.4" r="58.4" class="aouter svg" transform="translate(0 0)"/><path d="M71.2,91.4a30.911,30.911,0,0,0-6.5-2.5,23.774,23.774,0,0,0-12.6.1,36.7,36.7,0,0,0-6.4,2.5h-.1a1.528,1.528,0,0,1-2.1-.7,1.7,1.7,0,0,1,0-1.4,15.337,15.337,0,0,1,6.2-5.9,18.66,18.66,0,0,1,17.2,0,15.337,15.337,0,0,1,6.2,5.9,1.489,1.489,0,0,1-.6,2,1.051,1.051,0,0,1-1.3,0Z" class="binner"/><circle cx="14" cy="14" r="14" class="binner" transform="translate(14.4 47.1)"/><circle cx="9.7" cy="9.7" r="9.7" class="ceyes" transform="translate(18.5 53.5)"/><circle cx="3.4" cy="3.4" r="3.4" class="dmouth" transform="translate(24.8 64.4)"/><circle cx="14" cy="14" r="14" class="binner" transform="translate(74.6 47.1)"/><circle cx="9.7" cy="9.7" r="9.7" class="ceyes" transform="translate(78.8 53.5)"/><circle cx="3.4" cy="3.4" r="3.4" class="dmouth" transform="translate(85.1 64.4)"/></svg>