<svg xmlns="http://www.w3.org/2000/svg" width="98" height="98" viewBox="0 0 98 98"><def><style>.apause{fill:url(#a)}.bpause{fill:#a4e6dd}.cpause{filter:url(#b)}</style></def><defs><linearGradient id="a" x1=".092" x2=".935" y1=".279" y2=".81" gradientUnits="objectBoundingBox"><stop offset="0" stop-color="#389d8d"/><stop offset="1" stop-color="#126054"/></linearGradient><filter id="b" width="98" height="98" x="0" y="0" filterUnits="userSpaceOnUse"><feOffset dy="3" input="SourceAlpha"/><feGaussianBlur result="c" stdDeviation="3"/><feFlood flood-opacity=".161"/><feComposite in2="c" operator="in"/><feComposite in="SourceGraphic"/></filter></defs><g><g class="cpause" transform="translate(-734 -669) matrix(1, 0, 0, 1, 734, 669)"><circle cx="40" cy="40" r="40" class="apause" transform="translate(9 6)"/></g><path d="M17.666,21A4.183,4.183,0,0,1,13.5,16.8V4.2A4.183,4.183,0,0,1,17.666,0h4.167A4.183,4.183,0,0,1,26,4.2V16.8A4.183,4.183,0,0,1,21.833,21Zm0-4.2h4.167V4.2H17.666ZM4.166,21A4.183,4.183,0,0,1,0,16.8V4.2A4.183,4.183,0,0,1,4.166,0H8.333A4.182,4.182,0,0,1,12.5,4.2V16.8A4.182,4.182,0,0,1,8.333,21Zm0-4.2H8.333V4.2H4.166Z" class="bpause" transform="translate(-734 -669) translate(770.001 705)"/></g></svg>