<svg xmlns="http://www.w3.org/2000/svg" width="98" height="98" viewBox="0 0 98 98"><def><style>.a8uyt{fill:url(#a)}.b8uyt{fill:#a4e6dd}.b8uyt:hover{fill:#458980}</style></def><defs><linearGradient id="a" x1=".092" x2=".935" y1=".279" y2=".81" gradientUnits="objectBoundingBox"><stop offset="0" stop-color="#389d8d"/><stop offset="1" stop-color="#126054"/></linearGradient><filter id="b" width="98" height="98" x="0" y="0" filterUnits="userSpaceOnUse"><feOffset dy="3" input="SourceAlpha"/><feGaussianBlur result="c" stdDeviation="3"/><feFlood flood-opacity=".161"/><feComposite in2="c" operator="in"/><feComposite in="SourceGraphic"/></filter><filter id="d" width="45" height="49" x="34.5" y="22" filterUnits="userSpaceOnUse"><feOffset dx="3" input="SourceAlpha"/><feGaussianBlur result="e" stdDeviation="3"/><feFlood flood-opacity=".161"/><feComposite in2="e" operator="in"/><feComposite in="SourceGraphic"/></filter></defs><g><g class="d8uyt" transform="translate(-734 -669) matrix(1, 0, 0, 1, 734, 669)"><circle cx="40" cy="40" r="40" class="a8uyt" transform="translate(9 6)"/></g><g class="c8uyt"><path d="M12.031,6.043a4,4,0,0,1,6.938,0L27.56,21.009A4,4,0,0,1,24.091,27H6.909A4,4,0,0,1,3.44,21.009Z" class="b8uyt" transform="translate(-734 -669) matrix(1, 0, 0, 1, 734, 669) translate(67.5 31) rotate(90)"/></g></g></svg>